# xmcd
#
# Track frame offsets:
#	150
#	14127
#	26437
#	47322
#	61112
#	82252
#	102085
#	118990
#	135675
#	154005
#	171275
#	189917
#	207537
#	221367
#	244222
#
# Disc length: 3488 seconds
#
# Revision: 1
# Processed by: cddbd v1.5.1PL0 Copyright (c) Steve Scherf et al.
# Submitted via: audiograbber 1.82.02
#
DISCID=d00d9e0f
DTITLE=Various Artist - Sound Choice 8265 Yesterday's Country Vol 12
DYEAR=1900
DGENRE=Karaoke
TTITLE0=Hal Ketchum - Small town Saturday night
TTITLE1=Martina McBride - The time has come
TTITLE2=Garth Brooks - Face to face
TTITLE3=Vince Gill - Liza Jane
TTITLE4=Reba McEntire - Fallin' out of love
TTITLE5=Restless Heart - I'll still be loving you
TTITLE6=Rhett Akins - What they're talking about
TTITLE7=Doug Stone  - These lips don't know how to say good-bye
TTITLE8=Travis Tritt - Nothing short of dying
TTITLE9=Steve Wariner - The tips of my fingers
TTITLE10=Suzy Bogguss - Someday soon
TTITLE11=Sawyer Brown - The walk
TTITLE12=George Strait - Lovesick Blues
TTITLE13=Gary Morris - The wind beneath my wings
TTITLE14=George Jones and Alan Jackson - A good year for the roses
EXTD=
EXTT0=
EXTT1=
EXTT2=
EXTT3=
EXTT4=
EXTT5=
EXTT6=
EXTT7=
EXTT8=
EXTT9=
EXTT10=
EXTT11=
EXTT12=
EXTT13=
EXTT14=
PLAYORDER=
